<?xml version="1.0" encoding="UTF-8"?>
<svg width="50px" height="40px" viewBox="0 0 50 40" version="1.1" xmlns="http://www.w3.org/2000/svg" xmlns:xlink="http://www.w3.org/1999/xlink">
    <!-- Generator: Sketch 63 (92445) - https://sketch.com -->
    <title>19百分比线</title>
    <desc>Created with Sketch.</desc>
    <g id="页面-1" stroke="none" stroke-width="1" fill="none" fill-rule="evenodd">
        <g id="青山湖智慧城管大屏第三版-数字城管专题" transform="translate(-878.000000, -2374.000000)" fill-rule="nonzero">
            <g id="19百分比线" transform="translate(873.000000, 2364.000000)">
                <rect id="矩形" fill="#000000" opacity="0" x="0" y="0" width="60" height="60"></rect>
                <path d="M5.390625,10.8046875 L54.9140625,10.8046875 L54.9140625,12.9785156 L5.390625,12.9785156 L5.390625,10.8046875 Z M5.390625,47.015625 L54.9140625,47.015625 L54.9140625,49.1894531 L5.390625,49.1894531 L5.390625,47.015625 Z M5.390625,39.2753906 L54.9140625,39.2753906 L54.9140625,41.4492187 L5.390625,41.4492187 L5.390625,39.2753906 Z M28.4941406,29.7832031 L54.8613281,29.7832031 L54.8613281,31.9570312 L28.4941406,31.9570312 L28.4941406,29.7832031 Z M28.4941406,20.296875 L54.8613281,20.296875 L54.8613281,22.4707031 L28.4941406,22.4707031 L28.4941406,20.296875 Z M6.59765625,22.2011719 C6.59765625,20.8652344 6.95507812,19.8046875 7.6640625,19.0195312 C8.37890625,18.234375 9.33398437,17.8417969 10.546875,17.8417969 C11.7070312,17.8417969 12.609375,18.2050781 13.2597656,18.9257812 C13.9101562,19.6464844 14.2324219,20.6542969 14.2324219,21.9492187 C14.2324219,23.2324219 13.875,24.2753906 13.1601562,25.078125 C12.4453125,25.8808594 11.4902344,26.2792969 10.3066406,26.2792969 C9.18164062,26.2792969 8.28515625,25.9101562 7.61132812,25.1601562 C6.9375,24.4160156 6.59765625,23.4316406 6.59765625,22.2011719 L6.59765625,22.2011719 Z M8.22070312,22.0957031 C8.22070312,23.0039062 8.41992188,23.7011719 8.8125,24.1933594 C9.20507812,24.6855469 9.74414062,24.9316406 10.4238281,24.9316406 C11.1269531,24.9316406 11.6660156,24.6796875 12.0527344,24.1699219 C12.4335937,23.6601562 12.6269531,22.9453125 12.6269531,22.0136719 C12.6269531,21.1054687 12.4394531,20.4082031 12.0644531,19.9101562 C11.6894531,19.4179688 11.1621094,19.1660156 10.4765625,19.1660156 C9.77929688,19.1660156 9.234375,19.4238281 8.83007812,19.9394531 C8.42578125,20.4609375 8.22070312,21.1757812 8.22070312,22.0957031 L8.22070312,22.0957031 Z M21.3457031,18.0878906 L10.8632812,34.5058594 L9.10546875,34.5058594 L19.5820312,18.0878906 L21.3457031,18.0878906 L21.3457031,18.0878906 Z M16.3710938,30.5742188 C16.3710938,29.2382812 16.7285156,28.1777344 17.4375,27.3808594 C18.1523438,26.5839844 19.1074219,26.1855469 20.3085938,26.1855469 C21.4628906,26.1855469 22.359375,26.5488281 23.015625,27.2753906 C23.671875,28.0019531 23.9941406,29.0273438 23.9941406,30.3457031 C23.9941406,31.6230469 23.6308594,32.6601562 22.9101562,33.4570312 C22.1894531,34.2539062 21.2402344,34.6523438 20.0800781,34.6523438 C18.9492188,34.6523438 18.046875,34.2773438 17.3789062,33.5214844 C16.7109375,32.765625 16.3710938,31.78125 16.3710938,30.5742188 L16.3710938,30.5742188 Z M17.9824219,30.4804687 C17.9824219,31.3652344 18.1816406,32.0566406 18.5742188,32.5488281 C18.9667969,33.0410156 19.5058594,33.2929688 20.1855469,33.2929688 C20.8886719,33.2929688 21.4277344,33.0351562 21.8144531,32.5253906 C22.1953125,32.015625 22.3886719,31.2949219 22.3886719,30.375 C22.3886719,29.4609375 22.1953125,28.7636719 21.8144531,28.2773437 C21.4335938,27.7910156 20.90625,27.5507812 20.2382813,27.5507812 C19.5234375,27.5507812 18.9667969,27.8085937 18.5742188,28.3242187 C18.1816406,28.8457031 17.9824219,29.5605469 17.9824219,30.4804687 L17.9824219,30.4804687 Z" id="形状" fill="#00C3FF"></path>
            </g>
        </g>
    </g>
</svg>