<?xml version="1.0" encoding="UTF-8"?>
<svg width="50px" height="50px" viewBox="0 0 50 50" version="1.1" xmlns="http://www.w3.org/2000/svg" xmlns:xlink="http://www.w3.org/1999/xlink">
    <!-- Generator: Sketch 63 (92445) - https://sketch.com -->
    <title>金额</title>
    <desc>Created with Sketch.</desc>
    <g id="页面-1" stroke="none" stroke-width="1" fill="none" fill-rule="evenodd">
        <g id="青山湖智慧城管大屏第三版-数字城管专题" transform="translate(-878.000000, -2209.000000)" fill-rule="nonzero">
            <g id="金额" transform="translate(873.000000, 2204.000000)">
                <rect id="矩形" fill="#000000" opacity="0" x="0" y="0" width="60" height="60"></rect>
                <path d="M30,40.4081633 C29.3265306,40.4081633 28.7755102,39.8571428 28.7755102,39.1836735 L28.7755102,26.5714286 C28.7755102,25.8979591 29.3265306,25.3469388 30,25.3469388 C30.6734694,25.3469388 31.2244898,25.8979592 31.2244898,26.5714286 L31.2244898,39.1836735 C31.2244898,39.8571429 30.6734694,40.4081633 30,40.4081633 Z M37.5,35.0510204 L22.5,35.0510204 C21.8265306,35.0510204 21.2755102,34.5 21.2755102,33.8265306 C21.2755102,33.1530612 21.8265306,32.6020408 22.5,32.6020408 L37.5,32.6020408 C38.1734694,32.6020408 38.7244898,33.1530612 38.7244898,33.8265306 C38.7244898,34.4999999 38.1734694,35.0510204 37.5,35.0510204 Z M37.5,30.1530612 L22.5,30.1530612 C21.8265306,30.1530612 21.2755102,29.6020408 21.2755102,28.9285714 C21.2755102,28.2551021 21.8265306,27.7040817 22.5,27.7040817 L37.5,27.7040817 C38.1734694,27.7040817 38.7244898,28.2551021 38.7244898,28.9285714 C38.7244898,29.6020408 38.1734694,30.1530612 37.5,30.1530612 Z M30,27.7959183 C29.6938775,27.7959183 29.3877551,27.6734694 29.1428572,27.4285714 L23.3877551,21.6734694 C22.8979591,21.1836735 22.8979591,20.4183674 23.3877551,19.9285714 C23.877551,19.4387755 24.6428571,19.4387755 25.132653,19.9285714 L30.8877551,25.6836735 C31.377551,26.1734694 31.377551,26.9387755 30.8877551,27.4285714 C30.6122449,27.6734694 30.3061224,27.7959183 30,27.7959183 Z M30,27.7959183 C29.6938775,27.7959183 29.3877551,27.6734694 29.1428572,27.4285714 C28.6530612,26.9387755 28.6530612,26.1734694 29.1428572,25.6836735 L34.8979592,19.9285714 C35.3877551,19.4387755 36.1530612,19.4387755 36.6428572,19.9285714 C37.1326531,20.4183674 37.1326531,21.1836735 36.6428572,21.6734694 L30.8877551,27.4285714 C30.6122449,27.6734694 30.3061224,27.7959183 30,27.7959183 Z M30,54.4897959 C16.5,54.4897959 5.51020406,43.5 5.51020406,30 C5.51020406,16.5 16.5,5.51020406 30,5.51020406 C43.5,5.51020406 54.4897959,16.5 54.4897959,30 C54.4897959,43.5 43.5,54.4897959 30,54.4897959 Z M30,7.95918369 C17.8469388,7.95918369 7.95918369,17.8469388 7.95918369,30 C7.95918369,42.1530612 17.8469388,52.0408163 30,52.0408163 C42.1530612,52.0408163 52.0408163,42.1530612 52.0408163,30 C52.0408163,17.8469388 42.1530612,7.95918369 30,7.95918369 Z" id="形状" fill="#00C3FF"></path>
            </g>
        </g>
    </g>
</svg>