<?xml version="1.0" encoding="UTF-8"?>
<svg width="50px" height="60px" viewBox="0 0 50 60" version="1.1" xmlns="http://www.w3.org/2000/svg" xmlns:xlink="http://www.w3.org/1999/xlink">
    <!-- Generator: Sketch 63 (92445) - https://sketch.com -->
    <title>燃气</title>
    <desc>Created with Sketch.</desc>
    <g id="页面-1" stroke="none" stroke-width="1" fill="none" fill-rule="evenodd">
        <g id="青山湖智慧城管大屏第三版-综合概览" transform="translate(-2038.000000, -2321.000000)" fill="#FFBC00" fill-rule="nonzero">
            <g id="燃气" transform="translate(2038.000000, 2321.000000)">
                <path d="M25.6532118,59.2556818 C24.6332465,59.2556818 23.6530671,58.8309659 22.9448785,58.0589489 C18.062066,52.7393466 17.6844618,46.90625 18.4939236,42.4580966 C15.8391204,46.2634943 15.8369502,50.2507102 16.166088,52.5901989 C16.3085937,53.6065341 15.8304398,54.6178977 14.9479167,55.1669034 C14.0610532,55.7180398 12.9644097,55.712358 12.0869502,55.1505682 C5.02314815,50.6235795 0.550491898,42.6583807 0.413049769,34.3636364 C0.295138889,27.1839489 3.38686343,20.8941761 8.89684606,17.1072443 C19.5934606,9.75568182 18.4280961,3.63991477 18.4150752,3.57954545 L17.6634838,0.629971591 L20.6568287,1.47017045 C33.4714988,4.94105114 36.129919,15.8799716 36.5646701,22.1576705 C36.7115162,21.5866477 36.8301505,20.9616477 36.9155093,20.2940341 C37.0609086,19.15625 37.7864583,18.1974432 38.8563368,17.7294034 C39.9225984,17.2620739 41.1263021,17.3721591 42.0789931,18.0227273 C45.645978,20.4552557 48.2197627,25.8707386 48.3275463,26.100142 L48.4157986,26.3274148 C50.9244792,34.4183239 50.4246238,41.3629261 46.932147,46.9680398 C41.3462095,55.9318182 29.723669,58.5973011 26.2955729,59.2002841 C26.0814525,59.2372159 25.8666088,59.2556818 25.6532118,59.2556818 Z M22.2374132,36.4566761 C23.187934,37.1278409 23.5431134,38.2990057 23.119213,39.3714489 C21.7201968,42.9176136 20.1851852,49.7521307 25.6293403,55.6832386 C28.7123843,55.1683239 39.0494792,52.8174716 43.849103,45.1150568 C46.7621528,40.4389205 47.1477141,34.5071023 44.9949363,27.4808239 C44.3561921,26.162642 42.4971065,22.8977273 40.4311343,21.2443182 C40.1461227,23.1008523 39.5131655,25.4758523 38.1090856,27.1633523 C37.3265914,28.1057649 36.0175072,28.4505479 34.8596644,28.0191761 C33.7023454,27.589713 32.9552838,26.4807666 33.0056424,25.2670455 C33.1929977,20.5965909 32.4197049,9.8046875 21.9668692,5.64417614 C21.5154803,8.82386364 19.3677662,14.243608 10.9707755,20.0149148 C6.45978009,23.1150568 3.93012153,28.3238636 4.02922454,34.306108 C4.13556134,40.7713068 7.3046875,47.0028409 12.4182581,51.0106534 C12.3314525,47.3465909 13.2638889,41.3671875 19.1521991,36.5632102 C19.6238426,36.1768466 20.1916956,35.9822443 20.7624421,35.9822443 C21.2745949,35.9822443 21.7889178,36.1399148 22.2374132,36.4566761 Z" id="形状"></path>
            </g>
        </g>
    </g>
</svg>