<?xml version="1.0" encoding="UTF-8"?>
<svg width="53px" height="50px" viewBox="0 0 53 50" version="1.1" xmlns="http://www.w3.org/2000/svg" xmlns:xlink="http://www.w3.org/1999/xlink">
    <!-- Generator: Sketch 63 (92445) - https://sketch.com -->
    <title>事件台</title>
    <desc>Created with Sketch.</desc>
    <g id="页面-1" stroke="none" stroke-width="1" fill="none" fill-rule="evenodd">
        <g id="青山湖智慧城管大屏第三版-数字城管专题" transform="translate(-305.000000, -2211.000000)" fill-rule="nonzero">
            <g id="事件台" transform="translate(300.000000, 2204.000000)">
                <rect id="矩形" fill="#000000" opacity="0" x="0" y="0" width="60" height="60"></rect>
                <path d="M33.6964453,35.6250586 L33.6964453,33.3540234 L22.3642969,33.3540234 L22.3642969,36.1979883 L33.6964453,36.1979883 L33.6964453,35.625293 L33.6964453,35.6250586 Z M22.3069922,24.877793 L41.6041992,24.877793 L41.6041992,27.7222266 L22.3069922,27.7222266 L22.3069922,24.877793 Z M13.867207,24.8718164 L16.6749023,24.8718164 L16.6749023,27.7368164 L13.867207,27.7368164 L13.867207,24.8718164 L13.867207,24.8718164 Z M13.867207,33.3233203 L16.6749023,33.3233203 L16.6749023,36.1885547 L13.867207,36.1885547 L13.867207,33.3233203 L13.867207,33.3233203 Z M50.0229492,27.1655859 L50.0229492,7.96253906 L5.40708984,7.96253906 L5.40708984,50.3467969 L28.0644727,50.3467969 L27.8482031,56.6925586 L35.6711133,56.7332813 L57.9144141,35.1038672 L50.022832,27.1657031 L50.0229492,27.1655859 Z M8.21320312,10.8642187 L47.1788086,10.8642187 L47.1788086,16.3442578 L8.21320312,16.3442578 L8.21320312,10.8642187 Z M8.21308594,19.2463477 L47.16,19.2463477 L47.16,29.3133984 L29.739668,46.554082 L29.739668,46.4708203 L8.21308594,46.4708203 L8.21308594,19.2463477 L8.21308594,19.2463477 Z M34.8688477,54.1805273 L30.3250195,54.1877344 L30.5334375,48.9330469 L49.7002734,30.7979883 L54.2625,35.3602148 L34.8686719,54.1804102 L34.8688477,54.1805273 Z" id="形状" fill="#00C3FF"></path>
            </g>
        </g>
    </g>
</svg>