<?xml version="1.0" encoding="UTF-8"?>
<svg width="48px" height="49px" viewBox="0 0 48 49" version="1.1" xmlns="http://www.w3.org/2000/svg" xmlns:xlink="http://www.w3.org/1999/xlink">
    <!-- Generator: Sketch 63 (92445) - https://sketch.com -->
    <title>已完成1</title>
    <desc>Created with Sketch.</desc>
    <g id="页面-1" stroke="none" stroke-width="1" fill="none" fill-rule="evenodd">
        <g id="青山湖智慧城管大屏第三版-数字城管专题" transform="translate(-306.000000, -2370.000000)" fill-rule="nonzero">
            <g id="已完成1" transform="translate(300.000000, 2364.000000)">
                <rect id="矩形" fill="#000000" opacity="0" x="0" y="0" width="60" height="60"></rect>
                <path d="M43.47,10.83 L43.47,6.27 L16.53,6.27 L16.53,10.83 L6.15,10.83 L6.15,54.36 L53.85,54.36 L53.85,10.83 L43.47,10.83 Z M18.33,8.07 L41.67,8.07 L41.67,15.36 L18.33,15.36 L18.33,8.07 Z M52.05,52.56 L7.95,52.56 L7.95,12.63 L16.53,12.63 L16.53,17.19 L43.47,17.19 L43.47,12.63 L52.05,12.63 L52.05,52.56 L52.05,52.56 Z" id="形状" fill="#00C3FF"></path>
                <polygon id="路径" fill="#00C3FF" points="27.03 41.31 17.49 31.77 16.23 33.06 27.03 43.83 46.92 23.94 45.66 22.65"></polygon>
            </g>
        </g>
    </g>
</svg>