<?xml version="1.0" encoding="UTF-8"?>
<svg width="60px" height="60px" viewBox="0 0 60 60" version="1.1" xmlns="http://www.w3.org/2000/svg" xmlns:xlink="http://www.w3.org/1999/xlink">
    <!-- Generator: Sketch 63 (92445) - https://sketch.com -->
    <title>环保绿化</title>
    <desc>Created with Sketch.</desc>
    <g id="页面-1" stroke="none" stroke-width="1" fill="none" fill-rule="evenodd">
        <g id="青山湖智慧城管大屏第三版-综合概览" transform="translate(-1520.000000, -2321.000000)" fill="#FFBC00" fill-rule="nonzero">
            <g id="环保绿化" transform="translate(1520.000000, 2321.000000)">
                <path d="M-0.000179481685,29.6632923 C0.0133928571,36.3974472 2.33035714,42.6034331 6.20089286,47.5748239 L7.85491071,49.5224472 C13.359375,55.4643486 21.2879464,59.1879401 30.0736607,59.1682904 C36.4754464,59.1549296 42.3683036,57.1742958 47.2366071,53.7808099 L47.2232143,53.7610035 C47.53125,53.5365317 47.7455357,53.1866197 47.7455357,52.7772887 C47.7455357,52.090669 47.1763393,51.5360915 46.4799107,51.5360915 C46.2321429,51.5360915 46.0111607,51.6285211 45.8169643,51.7473592 L45.8035714,51.7275528 C41.4107143,54.6852993 35.7790179,56.659331 30.0736607,56.6725352 C14.9196429,56.7121479 2.56473214,44.590669 2.52455357,29.6566901 C2.49107143,14.7161092 14.7857143,2.53521127 29.9330357,2.5022007 C45.0803571,2.46919014 57.4352679,14.590669 57.4754464,29.5246479 C57.4888393,35.2420775 55.6875,40.5567782 52.6205357,44.940581 L52.640625,44.9537852 C52.4665179,45.1650528 52.3459821,45.4291373 52.3459821,45.7262324 C52.3459821,46.4128521 52.9151786,46.9674296 53.6116071,46.9674296 C54.0267857,46.9674296 54.375,46.756162 54.6026786,46.4524648 L54.6160714,46.465669 C58.1316964,41.6065141 60.0133929,35.9286972 60.0001412,29.5180458 C59.9598214,13.2108275 46.4665179,-0.0264084507 29.9263393,0.0130272716 C13.3861607,0.0528169014 -0.0401785714,13.3494718 -0.000179481685,29.6632923 Z" id="路径"></path>
                <path d="M31.2522321,49.5224472 L31.2522321,33.2152289 C31.359375,33.2152289 31.4598214,33.221831 31.5870536,33.221831 C33.6361607,33.221831 37.5401786,32.8191021 40.7410714,30.118838 C43.828125,27.5176056 45.46875,23.4837148 45.6026786,18.1294014 C45.6227679,17.5352113 45.1941964,17.0268486 44.5982143,16.934419 C44.3236607,16.8882042 37.7678571,15.8978873 33.2142857,19.9119718 C31.7544643,21.1927817 30.6830357,22.8433099 30,24.8239437 C29.3169643,22.8433099 28.2455357,21.1993838 26.7790179,19.9119718 C22.2254464,15.8978873 15.6763393,16.8948063 15.3950893,16.934419 C14.8058036,17.0268486 14.3705357,17.5418134 14.390625,18.1294014 C14.5245536,23.4837148 16.1651786,27.5176056 19.2522321,30.118838 C22.453125,32.8191021 26.3571429,33.221831 28.40625,33.221831 C28.5736607,33.221831 28.7142857,33.2152289 28.8549107,33.2152289 L28.8549107,49.5224472 C28.8549107,50.1760563 29.390625,50.7042254 30.0535714,50.7042254 C30.7165179,50.7042254 31.2522321,50.1760563 31.2522321,49.5224472 Z M43.1584821,19.1857394 C42.8638393,23.2658451 41.5379464,26.3292254 39.2008929,28.303257 C36.5625,30.5347711 33.2209821,30.8516725 31.546875,30.8516725 L31.5066964,30.8516725 C31.4866071,26.7253521 32.5915179,23.6421655 34.8080357,21.6879401 C37.5267857,19.278169 41.3303571,19.0933099 43.1584821,19.1857394 Z M28.453125,30.8516725 C26.7790179,30.8516725 23.4308036,30.5347711 20.7991071,28.303257 C18.46875,26.3292254 17.1361607,23.259243 16.8482143,19.1791373 C18.6696429,19.0933099 22.453125,19.2649648 25.1852679,21.6747359 C27.4084821,23.6355634 28.5200893,26.71875 28.5,30.8516725 L28.453125,30.8516725 Z" id="形状"></path>
            </g>
        </g>
    </g>
</svg>