<?xml version="1.0" encoding="UTF-8"?>
<svg width="68px" height="60px" viewBox="0 0 68 60" version="1.1" xmlns="http://www.w3.org/2000/svg" xmlns:xlink="http://www.w3.org/1999/xlink">
    <!-- Generator: Sketch 63 (92445) - https://sketch.com -->
    <title>在建工地</title>
    <desc>Created with Sketch.</desc>
    <g id="页面-1" stroke="none" stroke-width="1" fill="none" fill-rule="evenodd">
        <g id="青山湖智慧城管大屏第三版-综合概览" transform="translate(-2029.000000, -2062.000000)" fill="#FFBC00" fill-rule="nonzero">
            <g id="在建工地" transform="translate(2029.000000, 2062.000000)">
                <path d="M59.4342729,6.16551878 L55.6688677,6.16551878 L55.6688677,0 L51.9999594,0 L51.9999594,6.16551878 L15.6688677,6.16551878 L15.6688677,0 L11.9999594,0 L11.9999594,6.16551878 L8.2344866,6.16551878 C3.69399612,6.16551878 0,9.8594473 0,14.4000054 L0,27.5999202 C0,32.1405458 3.69399618,35.834542 8.2344866,35.834542 L11.9999594,35.834542 L11.9999593,60 L15.6688676,60 L15.6688677,45.8343054 L51.9999594,45.8343054 L51.9999594,60 L55.6688677,60 L55.6688677,35.8344744 L59.4343405,35.8344744 C63.9748985,35.8344744 67.6688271,32.1404782 67.6688271,27.5998526 L67.6688271,14.4000054 C67.6688271,9.8594473 63.9748985,6.16551878 59.4342729,6.16551878 Z M38.1404579,32.1655661 L43.2938081,9.83435951 L51.5283623,9.83435951 L46.3750798,32.1655661 L38.1404579,32.1655661 Z M14.1404714,32.1655661 L19.2938216,9.83435951 L27.5284435,9.83435951 L22.3750933,32.1655661 L14.1404714,32.1655661 Z M31.293781,9.83435951 L39.5284029,9.83435951 L34.3750527,32.1655661 L26.1404985,32.1655661 L31.293781,9.83435951 Z M3.66890827,27.5998526 L3.66890827,14.4000054 C3.66890827,11.8824321 5.71698088,9.83435945 8.2345542,9.83435945 L15.5285517,9.83435945 L10.3752015,32.165566 L8.2345542,32.165566 C5.71698088,32.165566 3.66890827,30.1175612 3.66890827,27.5998526 Z M51.9999594,42.1654646 L15.6688677,42.1654646 L15.6688677,35.8344744 L51.9999594,35.8344744 L51.9999594,42.1654646 Z M63.9999188,27.5998526 C63.9999188,30.1174935 61.9517785,32.1655661 59.4342728,32.1655661 L50.1404173,32.1655661 L55.2937675,9.83435951 L59.4342729,9.83435951 C61.9517785,9.83435951 63.9999188,11.8824321 63.9999188,14.4000054 L63.9999188,27.5998526 Z" id="形状"></path>
            </g>
        </g>
    </g>
</svg>