<?xml version="1.0" encoding="UTF-8"?>
<svg width="60px" height="60px" viewBox="0 0 60 60" version="1.1" xmlns="http://www.w3.org/2000/svg" xmlns:xlink="http://www.w3.org/1999/xlink">
    <!-- Generator: Sketch 63 (92445) - https://sketch.com -->
    <title>环保、气象与安全</title>
    <desc>Created with Sketch.</desc>
    <g id="页面-1" stroke="none" stroke-width="1" fill="none" fill-rule="evenodd">
        <g id="青山湖智慧城管大屏第三版-综合概览" transform="translate(-1520.000000, -2062.000000)" fill="#FFBC00" fill-rule="nonzero">
            <g id="环保、气象与安全" transform="translate(1520.000000, 2062.000000)">
                <path d="M30,60 C13.47,60 0,46.53 0,30 C0,13.47 13.47,0 30,0 C46.53,0 60,13.47 60,30 C60,46.53 46.53,60 30,60 Z M30,3.75 C15.54,3.75 3.75,15.54 3.75,30 C3.75,44.46 15.54,56.25 30,56.25 C44.46,56.25 56.25,44.46 56.25,30 C56.25,15.54 44.46,3.75 30,3.75 Z" id="形状"></path>
                <path d="M24.27,40.14 C23.31,39.75 22.86,38.64 23.28,37.68 C23.67,36.72 24.78,36.27 25.74,36.69 C26.19,36.87 27.87,37.05 28.38,37.08 C30.15,37.08 31.8,36.66 33.3,35.82 C35.25,34.74 36.96,32.97 38.37,30.51 C40.02,27.63 41.28,23.88 42.12,19.35 L40.86,19.35 C34.32,19.35 29.76,19.41 26.34,20.25 C24.42,20.7 22.95,21.39 21.84,22.35 C20.67,23.34 19.89,24.63 19.41,26.34 C19.08,27.54 18.99,29.67 19.59,31.62 C19.77,32.22 20.01,32.76 20.4,33.33 C20.97,34.2 20.7,35.37 19.83,35.91 C18.96,36.48 17.79,36.21 17.25,35.34 C16.68,34.47 16.29,33.6 16.02,32.7 C15.12,29.85 15.36,26.94 15.81,25.32 C16.47,22.92 17.7,20.94 19.41,19.47 C20.97,18.15 22.95,17.19 25.44,16.59 C29.25,15.66 34.02,15.57 40.83,15.57 L42.51,15.57 C43.44,15.57 44.34,15.93 45,16.59 L45.12,16.71 C45.72,17.43 45.99,18.42 45.87,19.38 L45.87,19.44 C44.97,24.66 43.53,28.98 41.58,32.34 C39.81,35.4 37.62,37.65 35.07,39.06 C33.03,40.23 30.78,40.8 28.35,40.8 C28.32,40.8 25.68,40.71 24.27,40.14 Z" id="路径"></path>
                <path d="M18.39,45.27 C17.37,45.21 16.56,44.31 16.65,43.29 C17.04,37.32 19.8,34.14 21.84,31.83 L22.05,31.59 C23.25,30.12 26.67,27.6 28.44,26.7 C30,25.89 31.26,25.41 33.18,25.26 C34.23,25.17 35.1,25.95 35.19,27 C35.28,28.02 34.5,28.92 33.45,29.01 C32.28,29.1 31.53,29.34 30.15,30.03 C28.65,30.81 25.68,33.03 24.84,34.02 L24.63,34.26 C22.77,36.39 20.67,38.82 20.37,43.53 C20.31,44.49 19.47,45.27 18.51,45.27 L18.39,45.27 Z" id="路径"></path>
            </g>
        </g>
    </g>
</svg>